<svg xmlns="http://www.w3.org/2000/svg" viewBox="0 0 69.67 69.04"><defs><style>.cls-1{fill:#ffffff;}</style></defs><g id="Capa_2" data-name="Capa 2"><g id="Capa_1-2" data-name="Capa 1"><path class="cls-1" d="M38.92,6.16,64.45,29.8c1.49,1.38,3.72-.85,2.23-2.23L41.15,3.93c-1.49-1.38-3.72.85-2.23,2.23Z"/><path class="cls-1" d="M42.7,7.4,7.08,44.28C5.67,45.74,7.9,48,9.31,46.51L44.93,9.63c1.41-1.46-.82-3.69-2.23-2.23Z"/><path class="cls-1" d="M58.78,24.42l-33.73,34c-1.43,1.45.8,3.68,2.23,2.23L61,26.65a1.58,1.58,0,0,0-2.23-2.23Z"/><path class="cls-1" d="M6.62,45.39V59.58a1.58,1.58,0,0,0,3.15,0V45.39a1.58,1.58,0,0,0-3.15,0Z"/><path class="cls-1" d="M26.16,58,9.46,59.26c-2,.15-2,3.31,0,3.15l16.7-1.26c2-.15,2-3.3,0-3.15Z"/><path class="cls-1" d="M7.08,59.72.46,66.34a1.58,1.58,0,0,0,2.23,2.23L9.31,62a1.58,1.58,0,0,0-2.23-2.23Z"/><path class="cls-1" d="M15,39.89l6.78,6.77A1.57,1.57,0,0,0,24,44.44l-6.78-6.78A1.58,1.58,0,0,0,15,39.89Z"/><path class="cls-1" d="M24.73,29.8l6.78,6.78a1.58,1.58,0,0,0,2.23-2.23L27,27.57a1.58,1.58,0,0,0-2.23,2.23Z"/><path class="cls-1" d="M34.51,20l6,6a1.57,1.57,0,0,0,2.22-2.23l-6-6A1.58,1.58,0,0,0,34.51,20Z"/><path class="cls-1" d="M55,16.56l7.25-7.25A1.58,1.58,0,0,0,60,7.08l-7.25,7.25A1.58,1.58,0,0,0,55,16.56Z"/><path class="cls-1" d="M55,2.69l12,12a1.58,1.58,0,0,0,2.23-2.23l-12-12A1.57,1.57,0,0,0,55,2.69Z"/></g></g></svg>