<svg xmlns="http://www.w3.org/2000/svg" viewBox="0 0 72.62 72.62"><defs><style>.cls-1{fill:#fff;}.cls-2{fill:#375a64;}.cls-3{fill:#e7b962;}</style></defs><title>compromiso</title><g id="Capa_2" data-name="Capa 2"><g id="Capa_1-2" data-name="Capa 1"><g id="Trust"><circle class="cls-1" cx="36.31" cy="36.31" r="35.28"/><path class="cls-2" d="M24.85,22.51l-3.92-2.93a1.3,1.3,0,0,0-1-.26,1.32,1.32,0,0,0-.89.53L7.3,35.5a1.34,1.34,0,0,0-.26,1,1.29,1.29,0,0,0,.54.89l3.9,2.94a1.32,1.32,0,0,0,.82.27l.19,0a1.29,1.29,0,0,0,.9-.53L25.12,24.42a1.35,1.35,0,0,0,.26-1A1.34,1.34,0,0,0,24.85,22.51Zm-.58,1.27L12.54,39.42a.27.27,0,0,1-.2.12.25.25,0,0,1-.22,0L8.21,36.55a.3.3,0,0,1-.12-.19.28.28,0,0,1,.06-.22L19.88,20.48a.3.3,0,0,1,.2-.1s0,0,0,0a.34.34,0,0,1,.19.07l3.9,2.93a.37.37,0,0,1,.12.2A.35.35,0,0,1,24.27,23.78ZM58.16,38.54,47.57,24.48A.52.52,0,0,0,47,24.3,10.91,10.91,0,0,1,43.15,24l-.85-.12c-1.7-.28-2.64-.33-5.32,1.34-.62.38-1.18.74-1.71,1.08a6.3,6.3,0,0,0-4.65-1.46h-4a.5.5,0,0,0-.42.23l-10,13.51a.53.53,0,0,0,0,.65l4.16,5.17L19,45.78a2.7,2.7,0,0,0,0,3.81l.13.13a2.69,2.69,0,0,0,1.9.78,3,3,0,0,0,.42,0,1.84,1.84,0,0,0-.06.47,2.85,2.85,0,0,0,.84,2l.14.14a2.87,2.87,0,0,0,2,.84,2.64,2.64,0,0,0,.62-.08,2.78,2.78,0,0,0,.8,2.36l.13.14a2.87,2.87,0,0,0,2,.84,2.78,2.78,0,0,0,.58-.06,2.71,2.71,0,0,0,.75,2.2l.13.13a2.72,2.72,0,0,0,3.81,0L37,55.79s0-.08.08-.11l1.74,1a4.73,4.73,0,0,0,2.33.77,2.49,2.49,0,0,0,2-1,3,3,0,0,0,.64-2.37,3.62,3.62,0,0,0,1.19.23,2.47,2.47,0,0,0,2-1A2.91,2.91,0,0,0,47.58,51a4.23,4.23,0,0,0,1.36.28,2.66,2.66,0,0,0,2.14-1.09,3.15,3.15,0,0,0,.69-2.56,4.48,4.48,0,0,0,1.53.34,2.63,2.63,0,0,0,2.14-1.09,3.19,3.19,0,0,0,.69-2.63,2.74,2.74,0,0,0-1-1.6l3-3.39A.52.52,0,0,0,58.16,38.54ZM22.22,49a1.65,1.65,0,0,1-2.3,0l-.12-.13a1.61,1.61,0,0,1,0-2.29l3.94-4a1.63,1.63,0,0,1,2.3,0l.13.13a1.64,1.64,0,0,1,0,2.3Zm3.63,3.22-.15.15a1.79,1.79,0,0,1-2.53,0L23,52.19a1.76,1.76,0,0,1-.53-1.26A1.79,1.79,0,0,1,23,49.66L28,44.71a1.8,1.8,0,0,1,2.53,0l.14.15a1.76,1.76,0,0,1,0,2.52l-2.48,2.48Zm3.49,3.34h0l-.06.08a1.84,1.84,0,0,1-2.53,0l-.14-.14a1.8,1.8,0,0,1,0-2.53l2.32-2.32,2.3-2.29a1.77,1.77,0,0,1,1.26-.53,1.8,1.8,0,0,1,1.27.53l.14.14a1.79,1.79,0,0,1,0,2.53l-.84.84h0ZM36.19,55,32.52,58.7a1.64,1.64,0,0,1-2.29,0l-.13-.13a1.6,1.6,0,0,1,0-2.28l3.69-3.69a1.6,1.6,0,0,1,1.14-.47,1.63,1.63,0,0,1,1.15.48l.12.13a1.58,1.58,0,0,1,.48,1.14A1.6,1.6,0,0,1,36.19,55Zm18.42-8.86c-.52.65-1.32,1.16-3.27,0l-.86-.5-.2-.13h-.06l-7-4.09-.53.92L50,46.62a1.84,1.84,0,0,1,.73,1.1,2.13,2.13,0,0,1-.48,1.75c-.52.66-1.32,1.17-3.27,0s-6.08-3.62-6.08-3.62l-.54.9s3.23,2,5.32,3.19a1.61,1.61,0,0,1,.86,1.12,1.9,1.9,0,0,1-.44,1.58c-.46.59-1.18,1-3,0s-4.54-2.71-4.54-2.71l-.56.91,3.78,2.26h0a1.58,1.58,0,0,1,.85,1.11,1.94,1.94,0,0,1-.42,1.58c-.47.58-1.2,1-3,0l-1.73-1a2.92,2.92,0,0,0,.16-.89A2.68,2.68,0,0,0,37,52l-.14-.14a2.68,2.68,0,0,0-1.7-.76,2.86,2.86,0,0,0-.48-3.37l-.14-.14a2.89,2.89,0,0,0-2.35-.78,3,3,0,0,0,.1-.68,2.83,2.83,0,0,0-.84-2L31.26,44a2.85,2.85,0,0,0-3.58-.37A2.69,2.69,0,0,0,26.92,42l-.13-.12a2.67,2.67,0,0,0-3.8,0l-1.84,1.84-3.84-4.76,9.56-13h3.75a5.37,5.37,0,0,1,3.71,1l-1,.67c-.88.57-1.61,1-2.14,1.36a19,19,0,0,0-3.94,3.46A1.69,1.69,0,0,0,26.82,34a2.12,2.12,0,0,0,1.37,1.34,6.22,6.22,0,0,0,5-.72c1.26-.67,2.37-1.29,2.84-1.58L54.12,43.17h0a1.81,1.81,0,0,1,1,1.24A2.17,2.17,0,0,1,54.61,46.17ZM54.27,42l-18-10.11a.58.58,0,0,0-.26-.06.45.45,0,0,0-.27.08s-1.4.81-3.07,1.71a5.21,5.21,0,0,1-4.12.66,1.15,1.15,0,0,1-.72-.63.67.67,0,0,1,.18-.59,17.71,17.71,0,0,1,3.67-3.21c.54-.33,1.26-.79,2.15-1.38s2.26-1.45,3.69-2.34c2.46-1.53,3.17-1.42,4.6-1.2l.84.14a14.42,14.42,0,0,0,4,.31L57.06,38.84Zm12.19-7.2L54.73,19.18a1.36,1.36,0,0,0-.9-.53,1.29,1.29,0,0,0-1,.26l-3.9,2.93a1.27,1.27,0,0,0-.53.9,1.31,1.31,0,0,0,.26,1L60.37,39.39a1.34,1.34,0,0,0,1.09.54,1.36,1.36,0,0,0,.82-.26l3.9-2.94a1.28,1.28,0,0,0,.53-.89A1.34,1.34,0,0,0,66.46,34.83Zm-.92,1.05-3.9,2.94a.3.3,0,0,1-.42-.07L49.49,23.11a.26.26,0,0,1-.06-.22.38.38,0,0,1,.12-.21l3.9-2.92a.34.34,0,0,1,.18-.07h0a.45.45,0,0,1,.2.12L65.61,35.47A.29.29,0,0,1,65.54,35.88Z"/><path class="cls-3" d="M65.54,35.88l-3.9,2.94a.3.3,0,0,1-.42-.07L49.49,23.11a.26.26,0,0,1-.06-.22.38.38,0,0,1,.12-.21l3.9-2.92a.34.34,0,0,1,.18-.07h0a.45.45,0,0,1,.2.12L65.61,35.47A.29.29,0,0,1,65.54,35.88Z"/><path class="cls-3" d="M24.33,23.56a.35.35,0,0,1-.06.22L12.54,39.42a.27.27,0,0,1-.2.12.25.25,0,0,1-.22,0L8.21,36.55a.3.3,0,0,1-.12-.19.28.28,0,0,1,.06-.22L19.88,20.48a.3.3,0,0,1,.2-.1s0,0,0,0a.34.34,0,0,1,.19.07l3.9,2.93A.37.37,0,0,1,24.33,23.56Z"/><path class="cls-3" d="M36.31,72.62A36.31,36.31,0,1,1,72.62,36.31,36.35,36.35,0,0,1,36.31,72.62Zm0-70.56A34.26,34.26,0,1,0,70.57,36.31,34.29,34.29,0,0,0,36.31,2.06Z"/></g></g></g></svg>