<svg xmlns="http://www.w3.org/2000/svg" viewBox="0 0 72.62 72.62"><defs><style>.cls-1{fill:#fff;}.cls-2{fill:#375a64;}.cls-3{fill:#e7b962;}</style></defs><title>honestidad</title><g id="Capa_2" data-name="Capa 2"><g id="Capa_1-2" data-name="Capa 1"><g id="Reputation"><circle class="cls-1" cx="36.31" cy="36.31" r="35.28"/><g id="Like"><path id="Like-2" data-name="Like" class="cls-2" d="M55.22,43.06a5.92,5.92,0,0,0-.4-2.25A4.3,4.3,0,0,0,57.21,37a3.87,3.87,0,0,0-1.64-3.29,4.39,4.39,0,0,0,1.21-3.1,4.14,4.14,0,0,0-4-4.2H42.52a14.8,14.8,0,0,0-1-9.2,5.43,5.43,0,0,0-5.94-3.18c-1.31.26-1.45,1-1.45,1.29s0,.74.06,1.37c.09,1.51.3,5.07,0,5.83s-3.45,5.57-5.46,8.54a.72.72,0,0,0-.12.4V52.35a.72.72,0,0,0,.59.7H47.78a4.54,4.54,0,0,0,4.8-4.21,7.44,7.44,0,0,0-.27-2A4.77,4.77,0,0,0,55.22,43.06ZM51.38,45.6a.7.7,0,0,0-.59.32.74.74,0,0,0-.06.68,6,6,0,0,1,.43,2.24,3.18,3.18,0,0,1-3.39,2.79H30.06V31.73c.89-1.32,5-7.46,5.48-8.63.39-1,.28-3.61.11-6.45,0-.45,0-.83-.06-1.08a3.38,3.38,0,0,1,1.94,0,3.81,3.81,0,0,1,2.71,2.26,13.44,13.44,0,0,1,.7,9.18.73.73,0,0,0,.13.62.71.71,0,0,0,.56.27H52.76a2.72,2.72,0,0,1,2.6,2.79A3.07,3.07,0,0,1,53.9,33.3a.69.69,0,0,0-.33.71.71.71,0,0,0,.53.59A2.36,2.36,0,0,1,55.79,37a2.8,2.8,0,0,1-2.15,2.68.71.71,0,0,0-.52.46.72.72,0,0,0,.12.68,3.61,3.61,0,0,1,.56,2.2C53.8,43.92,52.5,45.6,51.38,45.6ZM26.33,30.91a.7.7,0,0,0-.71-.71h-8a.74.74,0,0,0-.5.2.79.79,0,0,0-.2.5V55.16a.71.71,0,0,0,.59.7h8.15a.7.7,0,0,0,.7-.71Zm-8,23.54,0-22.83h6.62V54.45Z"/><rect class="cls-3" x="18.31" y="31.62" width="6.61" height="22.82"/></g><path class="cls-3" d="M36.31,72.62A36.31,36.31,0,1,1,72.62,36.31,36.35,36.35,0,0,1,36.31,72.62Zm0-70.56A34.26,34.26,0,1,0,70.57,36.31,34.28,34.28,0,0,0,36.31,2.06Z"/></g></g></g></svg>