<svg xmlns="http://www.w3.org/2000/svg" viewBox="0 0 72.62 72.62"><defs><style>.cls-1{fill:#fff;}.cls-2{fill:#375a64;}.cls-3{fill:#e7b962;}</style></defs><title>responsabilidad y eficacia</title><g id="Capa_2" data-name="Capa 2"><g id="Capa_1-2" data-name="Capa 1"><g id="Responsibility"><circle class="cls-1" cx="36.31" cy="36.31" r="35.28" transform="translate(-15.04 36.31) rotate(-45)"/><path class="cls-2" d="M52.8,53.82H38.22a.54.54,0,0,1-.53-.49h0s-.22-1-2.7-1.24l-1.83-.15a70.34,70.34,0,0,1-9.64-1.19c-3.94-.91-6.57-5.41-7.52-7.3l-.43-.86c-1.25-2.48-2.67-5.28-2.67-6.94,0-.66-.11-1.91-.21-3.23-.25-2.93-.34-4.37-.16-4.89a1.24,1.24,0,0,1,.84-.78,4.45,4.45,0,0,1,3.55.91c1.62,1.18,2.31,4.19,2.86,8.35A32.73,32.73,0,0,0,23,40.73c1.37,1.5,2.6,2.48,7,2.48h3.88c-.59-.23-1.31-.45-2.12-.7S30,42,29,41.64C27,41,25.75,40,25.32,38.76a2.87,2.87,0,0,1,.32-2.52C27,34,30,34.87,32.92,35.68l1.6.44a27.38,27.38,0,0,0,8,1.25,10.71,10.71,0,0,1,8.91,4.75c1.44,2.15,2,4.16,2,11.16A.54.54,0,0,1,52.8,53.82ZM38.6,52.75H52.27c0-6.69-.59-8.29-1.76-10a9.67,9.67,0,0,0-8.06-4.27,28.64,28.64,0,0,1-8.22-1.3l-1.59-.44c-2.55-.7-5.18-1.43-6.09.08a1.81,1.81,0,0,0-.23,1.61c.31.88,1.4,1.67,3.06,2.24,1,.35,1.9.63,2.7.88a19.94,19.94,0,0,1,3.35,1.23c.22.13.75.42.62.94s-.68.61-4.06.6H30c-4.85,0-6.3-1.17-7.82-2.82a33.53,33.53,0,0,1-3.38-5,.44.44,0,0,1-.07-.19c-.44-3.41-1-6.71-2.43-7.73a3.48,3.48,0,0,0-2.61-.75.29.29,0,0,0-.16.09,33.32,33.32,0,0,0,.21,4.48c.12,1.34.22,2.61.22,3.31,0,1.4,1.48,4.33,2.56,6.46L17,43c.88,1.76,3.31,5.94,6.81,6.75a70.18,70.18,0,0,0,9.48,1.16l1.84.15C37.49,51.24,38.32,52.16,38.6,52.75Z"/><path class="cls-2" d="M52.8,55.26H38.22a.53.53,0,0,0-.53.53v5.47a.54.54,0,0,0,.53.54H52.8a.54.54,0,0,0,.54-.54V55.79A.54.54,0,0,0,52.8,55.26Zm-.53,5.47H38.76V56.32H52.27Z"/><rect class="cls-3" x="38.76" y="56.32" width="13.52" height="4.41"/><circle class="cls-3" cx="36.31" cy="20.18" r="11.31" transform="translate(-3.63 31.59) rotate(-45)"/><path class="cls-2" d="M36.31,32A11.85,11.85,0,1,1,48.16,20.18,11.86,11.86,0,0,1,36.31,32Zm0-22.63A10.78,10.78,0,1,0,47.09,20.18,10.8,10.8,0,0,0,36.31,9.4Z"/><path class="cls-3" d="M36.31,72.62A36.31,36.31,0,1,1,72.62,36.31,36.35,36.35,0,0,1,36.31,72.62Zm0-70.56A34.26,34.26,0,1,0,70.57,36.31,34.29,34.29,0,0,0,36.31,2.06Z"/><path class="cls-1" d="M35.44,25.7a1.37,1.37,0,0,1-.93-.36l-3.85-3.52a1.38,1.38,0,1,1,1.86-2l2.8,2.56,5.58-6.53A1.38,1.38,0,0,1,43,17.61l-6.52,7.61a1.38,1.38,0,0,1-1,.48Z"/></g></g></g></svg>